<?xml version="1.0" encoding="UTF-8"?>
<svg version="1.1" xmlns="http://www.w3.org/2000/svg" width="1024" height="1024">
<path d="M0 0 C337.92 0 675.84 0 1024 0 C1024 337.92 1024 675.84 1024 1024 C686.08 1024 348.16 1024 0 1024 C0 686.08 0 348.16 0 0 Z " fill="#000000" transform="translate(0,0)"/>
<path d="M0 0 C58.74 0 117.48 0 178 0 C178 58.74 178 117.48 178 178 C173.38297191 174.04254735 168.99774186 170.13346989 164.74511719 165.8269043 C164.16369965 165.2424202 163.5822821 164.6579361 162.98324585 164.05574036 C161.73433649 162.79973363 160.48656057 161.54259902 159.23983002 160.28442955 C157.26692784 158.29400563 155.29038901 156.30725934 153.31280518 154.32148743 C147.69544235 148.67977269 142.08387008 143.03232348 136.4765625 137.38061523 C133.03625979 133.91357869 129.59114083 130.45138943 126.14298248 126.99216652 C124.83173892 125.6747095 123.52239662 124.35535736 122.21498871 123.03409386 C120.39360143 121.19355547 118.56619689 119.35919973 116.73730469 117.52612305 C116.19804352 116.97810028 115.65878235 116.43007751 115.10317993 115.865448 C112.74328155 113.51171913 111.20953474 112.06984491 108 111 C107.67 111.99 107.34 112.98 107 114 C105.36328125 115.578125 105.36328125 115.578125 103.3125 117.25 C100.6216819 119.52500784 98.22999496 121.77240286 96 124.5 C93.27534739 127.8169684 90.20392478 130.47848806 86.9375 133.25 C85.10650686 134.90380025 83.56392014 136.59609722 82 138.5 C79.27534739 141.8169684 76.20392478 144.47848806 72.9375 147.25 C71.10650686 148.90380025 69.56392014 150.59609722 68 152.5 C65.27534739 155.8169684 62.20392478 158.47848806 58.9375 161.25 C57.10650686 162.90380025 55.56392014 164.59609722 54 166.5 C51.27534739 169.8169684 48.20392478 172.47848806 44.9375 175.25 C43.10650686 176.90380025 41.56392014 178.59609722 40 180.5 C37.27534739 183.8169684 34.20392478 186.47848806 30.9375 189.25 C29.10650686 190.90380025 27.56392014 192.59609722 26 194.5 C23.27534739 197.8169684 20.20392478 200.47848806 16.9375 203.25 C15.10650686 204.90380025 13.56392014 206.59609722 12 208.5 C9.27534739 211.8169684 6.20392478 214.47848806 2.9375 217.25 C1.10650686 218.90380025 -0.43607986 220.59609722 -2 222.5 C-4.72465261 225.8169684 -7.79607522 228.47848806 -11.0625 231.25 C-12.89349314 232.90380025 -14.43607986 234.59609722 -16 236.5 C-18.72465261 239.8169684 -21.79607522 242.47848806 -25.0625 245.25 C-26.89349314 246.90380025 -28.43607986 248.59609722 -30 250.5 C-32.72465261 253.8169684 -35.79607522 256.47848806 -39.0625 259.25 C-40.89349314 260.90380025 -42.43607986 262.59609722 -44 264.5 C-46.72465261 267.8169684 -49.79607522 270.47848806 -53.0625 273.25 C-54.89349314 274.90380025 -56.43607986 276.59609722 -58 278.5 C-60.71727872 281.80799148 -63.7753569 284.46538773 -67.0390625 287.22265625 C-69.56525321 289.5123311 -71.66854444 292.03963051 -73.7734375 294.71484375 C-74.17820312 295.13894531 -74.58296875 295.56304688 -75 296 C-75.66 296 -76.32 296 -77 296 C-77 296.66 -77 297.32 -77 298 C-80.94126744 296.44161379 -83.06570227 293.9163873 -85.8125 290.75 C-89.1149041 287.00121033 -92.47819318 283.60788517 -96.35546875 280.45703125 C-98.92115162 278.1838728 -101.0359525 275.54691313 -103.25 272.9375 C-104.90380025 271.10650686 -106.59609722 269.56392014 -108.5 268 C-111.8169684 265.27534739 -114.47848806 262.20392478 -117.25 258.9375 C-118.90380025 257.10650686 -120.59609722 255.56392014 -122.5 254 C-125.8169684 251.27534739 -128.47848806 248.20392478 -131.25 244.9375 C-132.90380025 243.10650686 -134.59609722 241.56392014 -136.5 240 C-139.8169684 237.27534739 -142.47848806 234.20392478 -145.25 230.9375 C-146.90380025 229.10650686 -148.59609722 227.56392014 -150.5 226 C-153.8169684 223.27534739 -156.47848806 220.20392478 -159.25 216.9375 C-160.90380025 215.10650686 -162.59609722 213.56392014 -164.5 212 C-167.8169684 209.27534739 -170.47848806 206.20392478 -173.25 202.9375 C-174.90380025 201.10650686 -176.59609722 199.56392014 -178.5 198 C-181.80618468 195.28420544 -184.46091474 192.22522525 -187.22265625 188.96875 C-189.90810843 185.99409528 -192.89826783 183.53202626 -196 181 C-202.52501161 183.83303044 -208.24499633 189.59393735 -212.625 195.125 C-214.63976674 197.56392816 -216.54469638 199.4051941 -218.9375 201.4375 C-221.53982775 203.65069463 -223.83265328 205.86020713 -226 208.5 C-228.72465261 211.8169684 -231.79607522 214.47848806 -235.0625 217.25 C-236.89349314 218.90380025 -238.43607986 220.59609722 -240 222.5 C-242.72465261 225.8169684 -245.79607522 228.47848806 -249.0625 231.25 C-250.89349314 232.90380025 -252.43607986 234.59609722 -254 236.5 C-256.72465261 239.8169684 -259.79607522 242.47848806 -263.0625 245.25 C-264.89349314 246.90380025 -266.43607986 248.59609722 -268 250.5 C-270.72465261 253.8169684 -273.79607522 256.47848806 -277.0625 259.25 C-278.89349314 260.90380025 -280.43607986 262.59609722 -282 264.5 C-284.72465261 267.8169684 -287.79607522 270.47848806 -291.0625 273.25 C-292.89349314 274.90380025 -294.43607986 276.59609722 -296 278.5 C-298.72465261 281.8169684 -301.79607522 284.47848806 -305.0625 287.25 C-306.89349314 288.90380025 -308.43607986 290.59609722 -310 292.5 C-312.72465261 295.8169684 -315.79607522 298.47848806 -319.0625 301.25 C-320.89349314 302.90380025 -322.43607986 304.59609722 -324 306.5 C-326.72465261 309.8169684 -329.79607522 312.47848806 -333.0625 315.25 C-334.89349314 316.90380025 -336.43607986 318.59609722 -338 320.5 C-340.72465261 323.8169684 -343.79607522 326.47848806 -347.0625 329.25 C-348.89349314 330.90380025 -350.43607986 332.59609722 -352 334.5 C-354.72233478 337.81414669 -357.79007868 340.47409713 -361.0546875 343.2421875 C-362.92829818 344.9352092 -364.51764851 346.6810304 -366.125 348.625 C-368.84828762 351.89590524 -371.49226249 354.55983478 -375 357 C-378.70558065 356.72288227 -380.49168348 354.87365726 -383.03417969 352.30639648 C-383.81468689 351.52566269 -384.59519409 350.74492889 -385.39935303 349.9405365 C-386.23178528 349.09262039 -387.06421753 348.24470428 -387.921875 347.37109375 C-389.21185394 346.07474754 -389.21185394 346.07474754 -390.52789307 344.75221252 C-393.27570575 341.98759388 -396.01291036 339.21273138 -398.75 336.4375 C-400.60998825 334.56246749 -402.47065707 332.68810982 -404.33203125 330.81445312 C-408.89594973 326.21743983 -413.45119938 321.61197045 -418 317 C-416.4559667 313.54948427 -414.67625877 311.82578058 -411.703125 309.48046875 C-409.7833263 307.81165291 -408.20466001 306.00424326 -406.5625 304.0625 C-404.34930537 301.46017225 -402.13979287 299.16734672 -399.5 297 C-396.88247394 294.84988931 -394.69192291 292.58333772 -392.5 290 C-389.80219172 286.82044025 -386.96432437 284.20283787 -383.75 281.5625 C-381.81378167 279.83373364 -380.17886538 277.97866277 -378.5 276 C-375.80219172 272.82044025 -372.96432437 270.20283787 -369.75 267.5625 C-367.81378167 265.83373364 -366.17886538 263.97866277 -364.5 262 C-361.80219172 258.82044025 -358.96432437 256.20283787 -355.75 253.5625 C-353.81378167 251.83373364 -352.17886538 249.97866277 -350.5 248 C-347.80219172 244.82044025 -344.96432437 242.20283787 -341.75 239.5625 C-339.81378167 237.83373364 -338.17886538 235.97866277 -336.5 234 C-333.80219172 230.82044025 -330.96432437 228.20283787 -327.75 225.5625 C-325.81378167 223.83373364 -324.17886538 221.97866277 -322.5 220 C-319.80219172 216.82044025 -316.96432437 214.20283787 -313.75 211.5625 C-311.81378167 209.83373364 -310.17886538 207.97866277 -308.5 206 C-305.80219172 202.82044025 -302.96432437 200.20283787 -299.75 197.5625 C-297.81378167 195.83373364 -296.17886538 193.97866277 -294.5 192 C-291.80219172 188.82044025 -288.96432437 186.20283787 -285.75 183.5625 C-283.81378167 181.83373364 -282.17886538 179.97866277 -280.5 178 C-277.80219172 174.82044025 -274.96432437 172.20283787 -271.75 169.5625 C-269.81378167 167.83373364 -268.17886538 165.97866277 -266.5 164 C-263.80219172 160.82044025 -260.96432437 158.20283787 -257.75 155.5625 C-255.81378167 153.83373364 -254.17886538 151.97866277 -252.5 150 C-249.80219172 146.82044025 -246.96432437 144.20283787 -243.75 141.5625 C-241.81378167 139.83373364 -240.17886538 137.97866277 -238.5 136 C-235.80219172 132.82044025 -232.96432437 130.20283787 -229.75 127.5625 C-227.81378167 125.83373364 -226.17886538 123.97866277 -224.5 122 C-221.80339859 118.82186262 -218.9674617 116.20482873 -215.75390625 113.56640625 C-213.13976127 111.23172443 -210.96540735 108.56052579 -208.703125 105.890625 C-207.1235103 104.13710777 -205.52201999 102.66580252 -203.6875 101.1875 C-200.85430578 99.10119391 -200.85430578 99.10119391 -199 96 C-194.42943877 96.86673485 -191.83976307 99.56754556 -188.5625 102.6875 C-188.00240234 103.20505859 -187.44230469 103.72261719 -186.86523438 104.25585938 C-184.17785034 106.77390999 -181.66463127 109.32451417 -179.3359375 112.1796875 C-177.35088351 114.57635803 -175.45519498 116.47539225 -173.0625 118.4375 C-170.46017225 120.65069463 -168.16734672 122.86020713 -166 125.5 C-163.84988931 128.11752606 -161.58333772 130.30807709 -159 132.5 C-155.82044025 135.19780828 -153.20283787 138.03567563 -150.5625 141.25 C-148.83373364 143.18621833 -146.97866277 144.82113462 -145 146.5 C-141.82044025 149.19780828 -139.20283787 152.03567563 -136.5625 155.25 C-134.83373364 157.18621833 -132.97866277 158.82113462 -131 160.5 C-127.82044025 163.19780828 -125.20283787 166.03567563 -122.5625 169.25 C-120.83373364 171.18621833 -118.97866277 172.82113462 -117 174.5 C-113.82044025 177.19780828 -111.20283787 180.03567563 -108.5625 183.25 C-106.83373364 185.18621833 -104.97866277 186.82113462 -103 188.5 C-99.82044025 191.19780828 -97.20283787 194.03567563 -94.5625 197.25 C-92.25091648 199.83897354 -89.60556011 201.98724603 -86.9609375 204.2265625 C-84.45302241 206.49467694 -82.3400682 208.98416085 -80.2265625 211.6171875 C-79.02824461 213.14103109 -79.02824461 213.14103109 -77 214 C-77 213.34 -77 212.68 -77 212 C-75.37537564 210.27056117 -73.71196814 208.64080087 -72 207 C-70.49728507 205.50271985 -68.99749792 204.00249791 -67.5 202.5 C-27 162 13.5 121.5 54 81 C54.72445313 80.26394531 55.44890625 79.52789062 56.1953125 78.76953125 C56.99710938 77.95871094 57.79890625 77.14789063 58.625 76.3125 C59.38039063 75.54550781 60.13578125 74.77851563 60.9140625 73.98828125 C63 72 63 72 66 70 C65.12454711 65.29960827 62.227801 62.83543778 58.91967773 59.5949707 C58.28554962 58.9620108 57.65142151 58.3290509 56.99807739 57.6769104 C54.90013104 55.58615297 52.79187741 53.50610984 50.68359375 51.42578125 C49.22698347 49.9773049 47.77110588 48.52809139 46.31593323 47.07817078 C42.48362673 43.26299106 38.64283951 39.4564689 34.79980469 35.65209961 C28.64223426 29.55371212 22.49732176 23.44257556 16.35289192 17.3309536 C14.19948614 15.19157015 12.04234487 13.05600938 9.8846283 10.92097473 C8.57331498 9.61967879 7.26207726 8.31830667 5.95092773 7.0168457 C5.34470078 6.41892715 4.73847382 5.82100861 4.11387634 5.20497131 C2.72355043 3.82219203 1.35865934 2.41390576 0 1 C0 0.67 0 0.34 0 0 Z " fill="#FDFDFD" transform="translate(632,333)"/>
<path d="M0 0 C0.99 0.33 1.98 0.66 3 1 C-58.79446411 62.79446411 -120.58892822 124.58892822 -218 222 C-218 218 -218 218 -216.71484375 216.578125 C-216.12832031 216.13984375 -215.54179687 215.7015625 -214.9375 215.25 C-212.13850987 213.01981873 -209.80508674 210.73892393 -207.5 208 C-204.80219172 204.82044025 -201.96432437 202.20283787 -198.75 199.5625 C-196.81378167 197.83373364 -195.17886538 195.97866277 -193.5 194 C-190.80219172 190.82044025 -187.96432437 188.20283787 -184.75 185.5625 C-182.81378167 183.83373364 -181.17886538 181.97866277 -179.5 180 C-176.80219172 176.82044025 -173.96432437 174.20283787 -170.75 171.5625 C-168.81378167 169.83373364 -167.17886538 167.97866277 -165.5 166 C-162.80219172 162.82044025 -159.96432437 160.20283787 -156.75 157.5625 C-154.81378167 155.83373364 -153.17886538 153.97866277 -151.5 152 C-148.80219172 148.82044025 -145.96432437 146.20283787 -142.75 143.5625 C-140.81378167 141.83373364 -139.17886538 139.97866277 -137.5 138 C-134.80219172 134.82044025 -131.96432437 132.20283787 -128.75 129.5625 C-126.81378167 127.83373364 -125.17886538 125.97866277 -123.5 124 C-120.80219172 120.82044025 -117.96432437 118.20283787 -114.75 115.5625 C-112.81378167 113.83373364 -111.17886538 111.97866277 -109.5 110 C-106.80219172 106.82044025 -103.96432437 104.20283787 -100.75 101.5625 C-98.81378167 99.83373364 -97.17886538 97.97866277 -95.5 96 C-92.80219172 92.82044025 -89.96432437 90.20283787 -86.75 87.5625 C-84.81378167 85.83373364 -83.17886538 83.97866277 -81.5 82 C-78.80219172 78.82044025 -75.96432437 76.20283787 -72.75 73.5625 C-70.81378167 71.83373364 -69.17886538 69.97866277 -67.5 68 C-64.80219172 64.82044025 -61.96432437 62.20283787 -58.75 59.5625 C-56.81378167 57.83373364 -55.17886538 55.97866277 -53.5 54 C-50.80219172 50.82044025 -47.96432437 48.20283787 -44.75 45.5625 C-42.81378167 43.83373364 -41.17886538 41.97866277 -39.5 40 C-36.80219172 36.82044025 -33.96432437 34.20283787 -30.75 31.5625 C-28.81378167 29.83373364 -27.17886538 27.97866277 -25.5 26 C-22.80339859 22.82186262 -19.9674617 20.20482873 -16.75390625 17.56640625 C-14.13976127 15.23172443 -11.96540735 12.56052579 -9.703125 9.890625 C-8.1235103 8.13710777 -6.52201999 6.66580252 -4.6875 5.1875 C-1.85430578 3.10119391 -1.85430578 3.10119391 0 0 Z " fill="#D5D5D5" transform="translate(433,429)"/>
</svg>
